<?xml version="1.0" standalone="no"?>
<!DOCTYPE svg PUBLIC "-//W3C//DTD SVG 20010904//EN"
  "http://www.w3.org/TR/2001/REC-SVG-20010904/DTD/svg10.dtd">
<svg version="1.0" xmlns="http://www.w3.org/2000/svg"
     width="128.000000pt" height="128.000000pt" viewBox="0 0 128.000000 128.000000"
     preserveAspectRatio="xMidYMid meet">
  <g transform="translate(0.000000,128.000000) scale(0.100000,-0.100000)"
     fill="#000000" stroke="none">
    <path d="M82 1263 c-18 -9 -43 -30 -55 -47 l-22 -31 0 -545 0 -545 22 -31 c47
-65 36 -64 613 -64 577 0 566 -1 613 64 22 31 22 33 25 488 2 412 1 461 -14
490 -23 45 -149 174 -203 209 l-45 29 -450 0 c-395 0 -455 -2 -484 -17z m886
-45 c17 -17 17 -399 0 -416 -17 -17 -689 -17 -706 0 -17 17 -17 399 0 416 17
17 689 17 706 0z m143 -588 c18 -10 19 -24 19 -285 0 -261 -1 -275 -19 -285
-27 -14 -915 -14 -942 0 -18 10 -19 24 -19 285 0 250 2 275 18 284 24 14 916
15 943 1z"/>
    <path d="M740 1010 l0 -170 75 0 75 0 0 170 0 170 -75 0 -75 0 0 -170z"/>
  </g>
</svg>
